<?xml version="1.0" encoding="UTF-8"?>
<svg version="1.1" xmlns="http://www.w3.org/2000/svg" width="512" height="512">
<path d="M0 0 C1.09739992 -0.00297112 2.19479983 -0.00594224 3.32545429 -0.0090034 C6.99221028 -0.01765509 10.65893348 -0.01919567 14.32569885 -0.02069092 C16.9593623 -0.02532166 19.59302283 -0.03032655 22.22668457 -0.03573608 C29.37588293 -0.04928131 36.52507565 -0.05533847 43.6742847 -0.05974674 C48.14563092 -0.06251624 52.616975 -0.06675491 57.08831978 -0.07125092 C69.48862668 -0.08343976 81.88893189 -0.09373908 94.28924465 -0.09712601 C95.08194217 -0.09734557 95.87463968 -0.09756514 96.69135833 -0.09779136 C97.48586668 -0.09800964 98.28037503 -0.09822791 99.09895939 -0.09845281 C100.7087189 -0.09889626 102.31847841 -0.09934282 103.92823792 -0.09979248 C104.72672061 -0.10001391 105.52520331 -0.10023534 106.34788246 -0.10046348 C119.26896829 -0.1044065 132.18999756 -0.12184709 145.11106157 -0.145152 C158.40373503 -0.16893188 171.69638019 -0.18133091 184.98907524 -0.18249393 C192.44152381 -0.18340709 199.8938987 -0.18906817 207.34632683 -0.20731354 C213.69575848 -0.22280458 220.04509368 -0.22778251 226.39454066 -0.21957543 C229.62708539 -0.21570015 232.85939827 -0.21811544 236.09192657 -0.23063278 C263.82854874 -0.33167425 288.29870877 3.13647003 309.90211487 22.14044189 C311.04486877 23.14010986 311.04486877 23.14010986 312.21070862 24.15997314 C327.30536898 38.26053109 337.19116814 59.91506325 337.99595118 80.54596984 C338.03674184 83.43130466 338.04499129 86.31510386 338.04255676 89.20072937 C338.04701345 90.85885661 338.04701345 90.85885661 338.05156016 92.55048138 C338.06022363 96.25031642 338.06175344 99.95011901 338.06324768 103.64996338 C338.0678776 106.30480602 338.07288226 108.95964576 338.07829285 111.61448669 C338.09184725 118.82565863 338.09789675 126.03682498 338.1023035 133.24800754 C338.10507159 137.75703024 338.10931003 142.26605083 338.11380768 146.7750721 C338.125998 159.27656513 338.13629685 171.77805647 338.13968277 184.27955532 C338.13990234 185.07897474 338.1401219 185.87839416 338.14034812 186.70203841 C338.1405664 187.50330021 338.14078468 188.30456202 338.14100957 189.13010448 C338.14145302 190.75358609 338.14189959 192.37706771 338.14234924 194.00054932 C338.14257067 194.80584106 338.1427921 195.6111328 338.14302024 196.44082732 C338.14696339 209.47258302 338.1644037 222.50428263 338.18770877 235.5360167 C338.21148145 248.93826485 338.22388735 262.34048495 338.22505069 275.74275452 C338.22596428 283.25834304 338.23163635 290.77385852 338.2498703 298.2894268 C338.26535159 304.69270982 338.27034493 311.09589725 338.2621322 317.49919545 C338.25825346 320.75996241 338.26068517 324.02049925 338.27318954 327.28125 C338.37226489 354.74192093 334.71050302 378.75937218 315.90211487 400.14044189 C314.9024469 401.2831958 314.9024469 401.2831958 313.88258362 402.44903564 C299.38449493 417.96925303 277.55673238 427.4358154 256.41784775 428.2342782 C253.5462234 428.27471868 250.67614005 428.28333389 247.80422974 428.28088379 C246.70682982 428.28385491 245.6094299 428.28682603 244.47877544 428.28988719 C240.81201946 428.29853888 237.14529626 428.30007946 233.47853088 428.30157471 C230.84486743 428.30620545 228.2112069 428.31121034 225.57754517 428.31661987 C218.42834681 428.3301651 211.27915409 428.33622226 204.12994504 428.34063053 C199.65859882 428.34340002 195.18725473 428.3476387 190.71590996 428.3521347 C178.31560305 428.36432355 165.91529785 428.37462287 153.51498508 428.3780098 C152.72228757 428.37822936 151.92959006 428.37844893 151.1128714 428.37867515 C150.31836306 428.37889343 149.52385471 428.3791117 148.70527035 428.3793366 C147.09551084 428.37978005 145.48575133 428.38022661 143.87599182 428.38067627 C143.07750912 428.3808977 142.27902642 428.38111913 141.45634728 428.38134727 C128.53526145 428.38529029 115.61423218 428.40273088 102.69316817 428.42603579 C89.40049471 428.44981567 76.10784955 428.4622147 62.81515449 428.46337771 C55.36270593 428.46429088 47.91033104 428.46995195 40.45790291 428.48819733 C34.10847126 428.50368836 27.75913606 428.5086663 21.40968908 428.50045922 C18.17714434 428.49658394 14.94483146 428.49899923 11.71230316 428.51151657 C-16.02431901 428.61255804 -40.49447904 425.14441376 -62.09788513 406.14044189 C-62.85972107 405.47399658 -63.62155701 404.80755127 -64.40647888 404.12091064 C-79.50113925 390.0203527 -89.3869384 368.36582054 -90.19172144 347.73491395 C-90.2325121 344.84957913 -90.24076155 341.96577993 -90.23832703 339.08015442 C-90.24129815 337.97473626 -90.24426927 336.86931809 -90.24733043 335.73040241 C-90.25599389 332.03056737 -90.2575237 328.33076478 -90.25901794 324.63092041 C-90.26364787 321.97607777 -90.26865253 319.32123803 -90.27406311 316.66639709 C-90.28761751 309.45522516 -90.29366701 302.24405881 -90.29807377 295.03287625 C-90.30084185 290.52385354 -90.3050803 286.01483296 -90.30957794 281.50581169 C-90.32176826 269.00431866 -90.33206711 256.50282732 -90.33545303 244.00132847 C-90.3356726 243.20190905 -90.33589217 242.40248963 -90.33611839 241.57884538 C-90.33633666 240.77758357 -90.33655494 239.97632177 -90.33677983 239.15077931 C-90.33722329 237.52729769 -90.33766985 235.90381608 -90.33811951 234.28033447 C-90.33834094 233.47504273 -90.33856237 232.66975099 -90.33879051 231.84005647 C-90.34273366 218.80830077 -90.36017397 205.77660116 -90.38347903 192.74486709 C-90.40725172 179.34261893 -90.41965762 165.94039884 -90.42082095 152.53812927 C-90.42173455 145.02254075 -90.42740661 137.50702527 -90.44564056 129.99145699 C-90.46112186 123.58817397 -90.46611519 117.18498654 -90.45790246 110.78168834 C-90.45402372 107.52092138 -90.45645543 104.26038454 -90.46895981 100.99963379 C-90.56803515 73.53896286 -86.90627329 49.52151161 -68.09788513 28.14044189 C-67.43143982 27.37860596 -66.76499451 26.61677002 -66.07835388 25.83184814 C-48.95036144 7.49631635 -24.52596679 -0.02092371 0 0 Z " fill="#E63946" transform="translate(132.09788513183594,41.85955810546875)"/>
<path d="M0 0 C4.23178196 3.75089765 7.93096389 7.33893453 9 13 C9.10202944 15.17581347 9.1478581 17.35447163 9.16062927 19.53263855 C9.16571709 20.18715809 9.17080491 20.84167762 9.17604691 21.51603109 C9.19173314 23.70754408 9.20028629 25.89902419 9.20874023 28.09057617 C9.21828179 29.66275235 9.22817309 31.23492644 9.23838806 32.80709839 C9.26973811 37.96902993 9.29003584 43.13097742 9.30859375 48.29296875 C9.31353973 49.6114636 9.31353973 49.6114636 9.31858563 50.95659471 C9.34936456 59.25024702 9.37606456 67.54390304 9.39300442 75.83759594 C9.41490581 86.43500908 9.45687345 97.03191528 9.52644199 107.62912577 C9.5737316 115.08660733 9.59794455 122.54395234 9.6052013 130.00157911 C9.61014996 134.45268019 9.62515558 138.90320949 9.6649456 143.35414696 C9.70191363 147.54454306 9.71018884 151.73404319 9.69693947 155.92457199 C9.69699325 157.45759866 9.70722111 158.99066608 9.7286911 160.5235424 C9.83348824 168.43210012 9.6635592 174.7780077 4.69082737 181.29155445 C-0.17820945 186.21132594 -5.33061877 188.55967425 -12.125 189.375 C-18.63118766 188.74536894 -24.68313651 185.95681169 -29 180.9375 C-32.27574048 176.12625617 -33.25037339 173.35992232 -33.26069641 167.4539032 C-33.26452196 166.79797253 -33.26834751 166.14204186 -33.27228898 165.46623451 C-33.28260145 163.26996982 -33.27863021 161.07396742 -33.2746582 158.87768555 C-33.27900573 157.30226398 -33.28418902 155.72684453 -33.29014587 154.15142822 C-33.30354476 149.87238213 -33.30411341 145.59342432 -33.30158257 141.31436133 C-33.30051317 137.74091118 -33.30539562 134.16747891 -33.310188 130.59403259 C-33.3212869 122.16138899 -33.32171886 113.72878994 -33.31567383 105.29614258 C-33.30963686 96.60175734 -33.32193711 87.90753404 -33.3432439 79.21317643 C-33.36087045 71.74552177 -33.36685947 64.2779186 -33.36360615 56.8102439 C-33.36179436 52.35158215 -33.36441884 47.89303583 -33.37832069 43.43439293 C-33.39091106 39.23924761 -33.38894355 35.04435417 -33.37590981 30.84921265 C-33.37354686 29.31215644 -33.37626862 27.77508245 -33.38453293 26.23804665 C-33.39502684 24.13409014 -33.38687958 22.03097466 -33.3742218 19.92704773 C-33.37438954 18.75142619 -33.37455729 17.57580465 -33.37473011 16.36455822 C-32.70137235 10.31873661 -30.19494912 5.44171083 -26 1 C-18.15880387 -4.48883729 -8.30714293 -4.72366951 0 0 Z " fill="#ECEAE9" transform="translate(268,110)"/>
<path d="M0 0 C7.2879237 6.04765957 12.37023043 13.16630334 13.71875 22.6796875 C14.06469172 32.63632249 11.93294746 40.12165069 5.71875 47.90234375 C-1.14911179 55.01007571 -8.84264538 58.70432601 -18.78125 58.90234375 C-28.71985462 58.70432601 -36.41338821 55.01007571 -43.28125 47.90234375 C-49.49877142 40.1174888 -51.60719559 32.64524023 -51.29296875 22.6875 C-50.10748455 14.49770461 -45.88490015 7.17182799 -39.7734375 1.6171875 C-27.45685875 -7.43912041 -12.96905416 -8.61567784 0 0 Z " fill="#ECE9E8" transform="translate(274.78125,346.84765625)"/>
</svg>
